<svg width="23" height="28" viewBox="0 0 23 28" fill="none" xmlns="http://www.w3.org/2000/svg">
<path d="M22.3157 9.76166H18.5264L14.5453 0.473784C14.3478 0.012413 13.9194 -0.138223 13.5885 0.139191C13.2582 0.416605 13.1513 1.01619 13.3495 1.47855L16.8999 9.76166H5.41591L8.96634 1.47848C9.16452 1.01612 9.05761 0.41654 8.72731 0.139126C8.39564 -0.138288 7.96866 0.0123473 7.77048 0.473718L3.78941 9.7616H0V11.7139H1.51358L3.28525 24.9427C3.47047 26.3279 4.33537 27.3327 5.34196 27.3327H16.9738C17.9804 27.3327 18.8453 26.3279 19.0298 24.9437L20.8021 11.7139H22.3158L22.3157 9.76166ZM17.6589 24.5844C17.5976 25.0457 17.3095 25.3804 16.9738 25.3804H5.34196C5.00621 25.3804 4.71816 25.0458 4.65618 24.5834L2.93217 11.7139H19.3836L17.6589 24.5844Z" fill="white"/>
</svg>
